<svg xmlns="http://www.w3.org/2000/svg" xml:space="preserve" width="16" height="16" data-version="2">
    <path d="M6.48 11.25H5.46V6q0-1.13.73-1.85.73-.71 1.81-.71 1.19 0 1.78.6.6.6.6 1.47 0 1.11-1.03 1.59v.05q1.42.4 1.42 1.97 0 2.13-2.52 2.13H6.88v-.97h1.36q.76 0 1.11-.31.35-.3.35-.99 0-.59-.38-.91-.38-.32-1.03-.32H7.21v-.91h.7q.59 0 1.02-.33.42-.32.42-.87 0-.53-.32-.88-.33-.35-1.05-.35-.66 0-1.08.41-.42.41-.42 1.2Z" paint-order="stroke"/>
    <rect width="5.31" height="7.81" x="-2.655" y="-3.905" fill="none" rx="0" ry="0" transform="translate(8.615 7.845)"/>
</svg>
